# xmcd
#
# Track frame offsets:
#	150
#	13065
#	22845
#	33487
#	46687
#	56982
#	66537
#	76652
#	89650
#	100087
#	110432
#	121140
#	131472
#	141955
#	152787
#	164470
#	174455
#	185115
#	196327
#	210405
#	219575
#	232272
#	241962
#	253090
#
# Disc length: 3530 seconds
# Revision: 4
# Processed by: cddbd v1.5.2PL0 Copyright (c) Steve Scherf et al.
# Submitted via: dBpowerAMP V12.0
#
DISCID=560dc818
DTITLE=Waylon Jennings - Love of the Common People - Hangin' On
DYEAR=2009
DGENRE=Country
TTITLE0=Money Cannot Make the Man
TTITLE1=Young Widow Brown
TTITLE2=You've Got To Hide Your Love Away
TTITLE3=Love of the Common People
TTITLE4=I Tremble For You
TTITLE5=Destiny's Child
TTITLE6=Ruby, Don't Take Your Love To Town
TTITLE7=The Road
TTITLE8=If the Shoe Fits
TTITLE9=Don't Waste Your Time
TTITLE10=Taos, New Mexico
TTITLE11=Two Streaks of Steel
TTITLE12=Hangin' On
TTITLE13=Julie
TTITLE14=The Crowd
TTITLE15=Let Me Talk To You
TTITLE16=Woman, Don't You Ever Laugh At Me
TTITLE17=The Chokin' Kind
TTITLE18=Gentle On My Mind
TTITLE19=Right Before My Eyes
TTITLE20=Lock, Stock and Teardrops
TTITLE21=I Fall In Love So Easily
TTITLE22=Looking At a Heart That Needs a Home
TTITLE23=How Long Have You Been There
EXTD=
EXTT0=
EXTT1=
EXTT2=
EXTT3=
EXTT4=
EXTT5=
EXTT6=
EXTT7=
EXTT8=
EXTT9=
EXTT10=
EXTT11=
EXTT12=
EXTT13=
EXTT14=
EXTT15=
EXTT16=
EXTT17=
EXTT18=
EXTT19=
EXTT20=
EXTT21=
EXTT22=
EXTT23=
PLAYORDER=
